<?xml version="1.0" encoding="UTF-8"?>
<svg width="78px" height="46px" viewBox="0 0 78 46" version="1.1" xmlns="http://www.w3.org/2000/svg" xmlns:xlink="http://www.w3.org/1999/xlink">
    <!-- Generator: Sketch 49.3 (51167) - http://www.bohemiancoding.com/sketch -->
    <title>how_seven_big [Converted]</title>
    <desc>Created with Sketch.</desc>
    <defs></defs>
    <g id="Page-1" stroke="none" stroke-width="1" fill="none" fill-rule="evenodd">
        <g id="Desktop-HD-Copy-4" transform="translate(-38.000000, -13.000000)" fill="#DC195D">
            <g id="how_seven_big-[Converted]" transform="translate(38.000000, 13.000000)">
                <path d="M29,32.473546 C29,28.4206379 28.244847,24 22.7828441,24 C19.0151988,24 16.7524464,25.1058161 16,30.4484053 L16,39.1058161 C16,40.9470919 18.0732875,44.6322702 20.3333333,44.6322702 C21.0857797,44.6322702 22.2171559,45 22.7828441,45 C25.608578,45 28.6237768,44.0780488 29,39.6574109 L29,37.6322702 L25.9848012,37.6322702 C25.608578,38.1838649 25.608578,38.7380863 25.4191131,39.2896811 C25.2296481,40.763227 23.3458255,40.5793621 22.7801374,40.5793621 C20.7068499,40.5793621 19.7649386,39.6574109 19.7649386,37.4484053 C19.7649386,36.8968105 19.7649386,36.526454 20.7068499,36.1587242 L27.4896939,36.1587242 C28.8105351,36.1587242 29,32.8412758 29,32.473546 Z M25.608578,32.2896811 C25.608578,32.8412758 25.608578,33.2116323 25.4191131,33.5793621 C21.8382261,33.5793621 21.272538,33.763227 20.7095565,33.763227 C19.7676452,33.763227 19.7676452,33.3954972 19.7676452,33.0251407 C19.7676452,31 20.3333333,29.3399625 22.7828441,29.3399625 C25.0428899,29.3425891 25.608578,30.2645403 25.608578,32.2896811 Z" id="Shape"></path>
                <path d="M77.7279261,44.2767488 C77.7279261,45.4705674 76.5112936,46 75.7002053,46 C74.4835729,46 73.5364476,45.4705674 73.5364476,44.2767488 C73.5364476,43.0855255 74.3475359,42.5534977 75.4281314,42.5534977 C76.2417864,42.5534977 77.7279261,42.818214 77.7279261,44.2767488 Z M77.0528747,24.0025953 C77.4584189,24.0025953 77.863963,24.1349534 78,24.3996697 L77.5944559,40.0335024 C77.0528747,40.1658606 75.9722793,40.1658606 75.7027721,40.1658606 C74.2166324,40.1658606 73.6750513,40.4305769 73.6750513,37.9131768 C73.6750513,34.0696001 73,26.5174 73,26.2526837 L73,24 L77.0528747,24 L77.0528747,24.0025953 Z" id="Shape"></path>
                <path d="M28,13.7221405 C28,9.45369009 28,5 22.3156552,5 C18.9402565,5 17.1645366,5.92884446 16.2766767,10.7530138 C15.6541542,14.1852396 16.2766767,17.990591 16.2766767,17.990591 C16.2766767,18.3610703 16.6313104,20.2161129 17.3431291,21.330197 C17.8763554,22.0738018 18.5856228,22.4442811 19.2974416,22.6295207 C20.006709,23 21.6063878,23 21.9610215,23 C28,23 28,18.1758306 28,13.7221405 Z M25.5124613,13.9073802 C25.5124613,16.1355484 24.6246014,17.8053514 22.1370627,17.8053514 C19.649524,17.8053514 18.7642154,15.9476625 18.7642154,14.0926198 C18.7642154,12.0523375 19.6520753,10.3825345 22.139614,10.3825345 C24.6271527,10.3825345 25.5124613,11.6818583 25.5124613,13.9073802 Z" id="Shape"></path>
                <path d="M32.2366738,1.18834973 L32.4173493,17.9329059 C33.8550107,14.3967061 35.292672,5.84138388 36.5496577,2.30518404 C37.8066435,2.11948712 39.0662103,1.74809329 40.323196,1.37404665 L44.8142745,14.9537968 C44.9949501,14.9537968 44.9949501,15.1394938 45.1730446,15.3251907 C45.7124902,14.582403 45.5318146,1 45.5318146,1 L51.8193244,1 C51.8193244,1.18569692 51.6386489,1.37139383 52,6.39582182 C51.8193244,6.58151874 51.4605544,6.58151874 51.1017843,6.76721565 L51.1017843,21.0924063 L45.1730446,21.2781032 C44.992369,21.0924063 44.6335989,21.0924063 44.4555044,20.9067094 L39.6030749,8.06974688 L34.7506453,25 L29,25 L29,1.18834973 L32.2366738,1.18834973 Z" id="Shape"></path>
                <path d="M26,0 C25.8151669,0.90636578 26,1.99090603 26,3.43954193 L14.6037178,3.43954193 L14.6037178,22.091052 L11.4773975,22.091052 L11.4773975,16.4798473 C9.63962822,16.4798473 7.80185889,16.4798473 5.77925644,16.660604 C5.59442332,18.65151 5.59442332,20.825755 5.59442332,23 C1.36702577,23 1.18219265,22.8192433 1,22.8192433 L1,4.70742113 L5.77925644,4.70742113 L5.77925644,10.321208 L11.4773975,10.321208 L11.4773975,0 L26,0 Z" id="Shape"></path>
                <path d="M55,33.0908639 L46.9304435,33.0908639 L46.9304435,35.322003 L54.8235887,35.322003 L54.8235887,39.0441055 L47.280746,39.0441055 C47.1043347,39.4155198 46.9304435,39.601227 46.9304435,40.1610015 C46.9304435,40.5324159 46.9304435,40.718123 47.280746,41.0921903 L54.4732863,41.0921903 L54.4732863,45 L45,45 L45,29 L55,29 L55,33.0908639 Z" id="Shape"></path>
                <path d="M71,37.5009548 C70.625606,38.8136219 71,43.8744749 69.6882744,43.8744749 L65.3760101,43.8744749 L60.500808,32.0631445 C60.1264141,33.3758116 59.7493266,45 59.7493266,45 L56.5629377,45 L57.1258754,28.6892425 L56,28.6892425 L56,24.7512412 C61.249596,24.3769574 60.3122643,24.7512412 62.7498653,24.9383832 C63.687197,28.4994271 65.1874663,32.0631445 67.2506734,35.6241884 C67.4392171,34.8756206 67.4392171,33.9372374 67.4392171,32.9988542 C67.4392171,29.8120942 68.3765488,24.7485678 67.2506734,24 L71,24 L71,37.5009548 Z" id="Shape"></path>
                <path d="M11.2165506,26.4660767 C11.3978247,25.7062439 11.3978247,24.7598328 11.2165506,24 L14.2800829,24 L14.2800829,32.1553589 L13.7388502,32.1553589 C5.8068136,32.1553589 11.7551936,29.3107178 6.70800483,29.3107178 C5.44685504,29.3107178 3.64447258,29.1214356 3.64447258,31.2062439 C3.64447258,32.1553589 3.64447258,33.1017699 5.26558094,33.6723206 C7.42792197,34.6214356 15,33.8616028 15,39.3616028 C15,44.1017699 10.1314957,45.2401672 7.78788053,45.2401672 C6.90999597,45.2401672 6.47752777,45.2726155 6.07095586,45.1833825 C5.47275134,45.053589 4.92374978,44.6615044 3.10065028,43.5339233 C3.10065028,44.2937561 3.10065028,45.2401672 2.91937619,46 L0.399666225,46 L0.399666225,37.8446411 L3.10323991,37.8446411 C3.64447258,37.8446411 3.82574668,38.0339233 4.18570524,38.0339233 C4.36697934,38.2232055 4.54566381,38.6017699 4.54566381,38.7910521 C4.90562237,41.0651426 5.44685504,41.0651426 6.88927893,41.0651426 C8.69166139,41.0651426 9.41416815,40.3080138 9.41416815,38.7910521 C9.41416815,37.6526549 9.41416815,36.8955261 8.15301836,36.7062439 C6.89186856,36.5169617 5.62812914,36.7062439 4.36697934,36.3276794 C2.74587098,35.949115 0.220981757,33.8616028 0.220981757,32.1553589 C0.220981757,32.1553589 -0.276227197,30.4004425 0.220981757,28.7428712 C0.402255855,24.7598328 3.46578811,24.002704 5.80940323,24.002704 C7.4305116,24 10.1340853,24.3812684 11.2165506,26.4660767 Z" id="Shape"></path>
                <path d="M51.817189,24.002569 C52,24.5420681 52,25.4438022 52,25.8034682 C52,26.3429672 52,27.4245344 51.6369896,27.6043674 L42.5460589,27.6043674 L42.5460589,37.3333333 C41.637227,42.5587669 35.0925926,44 32.0004748,44 C31.4546534,44 31.0916429,43.820167 30.5458215,43.460501 L30.3630104,31.7508028 C30.3630104,31.5709698 30,31.3911368 30,31.0289017 L30,27.2447013 C31.0916429,27.4245344 32.7264957,27.2447013 33.2723172,27.2447013 C33.6353276,27.2447013 34.0009497,27.4245344 34.1811491,27.7842004 L34.1811491,39.4938985 L35.6358025,39.4938985 C38.9081197,38.9543995 39.2711301,35.5298651 39.2711301,33.908799 C39.2711301,33.5491329 38.9081197,24.7219011 38.9081197,24.539499 C39.0909307,24.359666 39.0909307,24.179833 39.0909307,24 L51.817189,24 L51.817189,24.002569 Z" id="Shape"></path>
            </g>
        </g>
    </g>
</svg>