<?xml version="1.0" encoding="UTF-8"?>
<svg width="397px" height="234px" viewBox="0 0 397 234" version="1.1" xmlns="http://www.w3.org/2000/svg" xmlns:xlink="http://www.w3.org/1999/xlink">
    <!-- Generator: Sketch 49.3 (51167) - http://www.bohemiancoding.com/sketch -->
    <title>how_seven</title>
    <desc>Created with Sketch.</desc>
    <defs></defs>
    <g id="Page-1" stroke="none" stroke-width="1" fill="none" fill-rule="evenodd">
        <g id="Desktop-HD-Copy-5" transform="translate(-458.000000, -175.000000)" fill="#FDFDFB">
            <g id="how_seven" transform="translate(458.000000, 175.000000)">
                <path d="M147,168.771232 C147,148.313696 143.282324,126 116.392463,126 C97.8440558,126 86.7043514,131.581739 83,158.549093 L83,202.248405 C83,211.542464 93.206954,230.14384 104.333333,230.14384 C108.037685,230.14384 113.607537,232 116.392463,232 C130.303768,232 145.147824,227.346341 147,205.032645 L147,194.810507 L132.155944,194.810507 C130.303768,197.594747 130.303768,200.392245 129.371018,203.176485 C128.438268,210.614384 119.164064,209.686304 116.379138,209.686304 C106.172184,209.686304 101.535082,205.032645 101.535082,193.882427 C101.535082,191.098186 101.535082,189.228768 106.172184,187.372608 L139.564647,187.372608 C146.06725,187.372608 147,170.627392 147,168.771232 Z M130.303768,167.843152 C130.303768,170.627392 130.303768,172.496811 129.371018,174.352971 C111.742036,174.352971 108.95711,175.281051 106.185509,175.281051 C101.548407,175.281051 101.548407,173.424891 101.548407,171.555472 C101.548407,161.333333 104.333333,152.954096 116.392463,152.954096 C127.518842,152.967355 130.303768,157.621013 130.303768,167.843152 Z" id="Shape"></path>
                <path d="M395.585216,223.148755 C395.585216,229.280642 389.258727,232 385.041068,232 C378.714579,232 373.789528,229.280642 373.789528,223.148755 C373.789528,217.030199 378.007187,214.297511 383.626283,214.297511 C387.85729,214.297511 395.585216,215.65719 395.585216,223.148755 Z M392.074949,119.01333 C394.183778,119.01333 396.292608,119.69317 397,121.052849 L394.89117,201.353899 C392.074949,202.033738 386.455852,202.033738 385.054415,202.033738 C377.326489,202.033738 374.510267,203.393417 374.510267,190.463136 C374.510267,170.721128 371,131.930282 371,130.570603 L371,119 L392.074949,119 L392.074949,119.01333 Z" id="Shape"></path>
                <path d="M141,71.6107027 C141,50.2684505 141,28 111.630885,28 C94.1913255,28 85.0167726,32.6442223 80.4294961,56.7650691 C77.2131299,73.9261982 80.4294961,92.952955 80.4294961,92.952955 C80.4294961,94.8053514 82.2617703,104.080565 85.9395006,109.650985 C88.6945028,113.369009 92.3590513,115.221405 96.0367816,116.147604 C99.70133,118 107.966337,118 109.798611,118 C141,118 141,93.8791532 141,71.6107027 Z M128.147717,72.5369009 C128.147717,83.6777418 123.56044,92.0267568 110.708157,92.0267568 C97.8558739,92.0267568 93.2817793,82.7383123 93.2817793,73.4630991 C93.2817793,63.2616877 97.8690558,54.9126727 110.721339,54.9126727 C123.573622,54.9126727 128.147717,61.4092914 128.147717,72.5369009 Z" id="Shape"></path>
                <path d="M165.605544,8.94174865 L166.532488,92.6645297 C173.908316,74.9835305 181.284143,32.2069194 187.733027,14.5259202 C194.18191,13.5974356 200.644035,11.7404665 207.092919,9.87023323 L230.134104,77.7689842 C231.061048,77.7689842 231.061048,78.6974688 231.97475,79.6259534 C234.742341,75.912015 233.815397,8 233.815397,8 L266.073056,8 C266.073056,8.92848458 265.146112,9.85696916 267,34.9791091 C266.073056,35.9075937 264.232409,35.9075937 262.391763,36.8360783 L262.391763,108.462032 L231.97475,109.390516 C231.047806,108.462032 229.20716,108.462032 228.293458,107.533547 L203.398384,43.3487344 L178.503311,128 L149,128 L149,8.94174865 L165.605544,8.94174865 Z" id="Shape"></path>
                <path d="M129,0 C128.068441,4.65005052 129,10.2142135 129,17.6463456 L71.5627376,17.6463456 L71.5627376,113.336701 L55.8060837,113.336701 L55.8060837,84.5487819 C46.5437262,84.5487819 37.2813688,84.5487819 27.0874525,85.4761424 C26.1558935,95.6903559 26.1558935,106.845178 26.1558935,118 C4.84980989,118 3.91825095,117.072639 3,117.072639 L3,24.1511171 L27.0874525,24.1511171 L27.0874525,52.9522847 L55.8060837,52.9522847 L55.8060837,0 L129,0 Z" id="Shape"></path>
                <path d="M278,169.454319 L235.231351,169.454319 L235.231351,180.610015 L277.06502,180.610015 L277.06502,199.220527 L237.087954,199.220527 C236.152974,201.077599 235.231351,202.006135 235.231351,204.805007 C235.231351,206.662079 235.231351,207.590615 237.087954,209.460952 L275.208417,209.460952 L275.208417,229 L225,229 L225,149 L278,149 L278,169.454319 Z" id="Shape"></path>
                <path d="M358,192.861871 C356.15299,199.362699 358,224.425971 351.52882,224.425971 L330.254983,224.425971 L306.203986,165.931763 C304.356976,172.432591 302.496678,230 302.496678,230 L286.777159,230 L289.554319,149.222915 L284,149.222915 L284,129.720433 C309.898007,127.866836 305.273837,129.720433 317.299336,130.647231 C321.923505,148.282877 329.324834,165.931763 339.503322,183.567409 C340.433471,179.860216 340.433471,175.212985 340.433471,170.565754 C340.433471,154.783705 345.057641,129.707193 339.503322,126 L358,126 L358,192.861871 Z" id="Shape"></path>
                <path d="M57.5782931,138.106195 C58.5088335,134.376106 58.5088335,129.730088 57.5782931,126 L73.3044254,126 L73.3044254,166.035398 L70.5260977,166.035398 C29.8083098,166.035398 60.3433274,152.070796 34.4344248,152.070796 C27.9605225,152.070796 18.7082926,151.141593 18.7082926,161.376106 C18.7082926,166.035398 18.7082926,170.681416 27.0299822,173.482301 C38.1299994,178.141593 77,174.411504 77,201.411504 C77,224.681416 52.0083444,230.269912 39.9777867,230.269912 C35.4713127,230.269912 33.2513092,230.429204 31.1642401,229.99115 C28.0934569,229.353982 25.2752489,227.429204 15.9166715,221.893805 C15.9166715,225.623894 15.9166715,230.269912 14.9861311,234 L2.05161996,234 L2.05161996,193.964602 L15.9299649,193.964602 C18.7082926,193.964602 19.6388329,194.893805 21.4866202,194.893805 C22.4171606,195.823009 23.3344076,197.681416 23.3344076,198.610619 C25.1821949,209.774336 27.9605225,209.774336 35.3649652,209.774336 C44.6171951,209.774336 48.3260632,206.057522 48.3260632,198.610619 C48.3260632,193.022124 48.3260632,189.30531 41.8521609,188.376106 C35.3782586,187.446903 28.8910629,188.376106 22.4171606,186.517699 C14.095471,184.659292 1.13437302,174.411504 1.13437302,166.035398 C1.13437302,166.035398 -1.41796628,157.420354 1.13437302,149.283186 C2.06491339,129.730088 17.7910456,126.013274 29.8216033,126.013274 C38.1432929,126 52.0216378,127.871681 57.5782931,138.106195 Z" id="Shape"></path>
                <path d="M264.069326,123.013231 C265,125.791651 265,130.435581 265,132.287861 C265,135.066281 265,140.636352 263.151947,141.562492 L216.870845,141.562492 L216.870845,191.666667 C212.244065,218.577649 178.925926,226 163.184236,226 C160.405508,226 158.557455,225.07386 155.778727,223.22158 L154.848053,162.916635 C154.848053,161.990495 153,161.064355 153,159.198844 L153,139.710212 C158.557455,140.636352 166.880342,139.710212 169.659069,139.710212 C171.507123,139.710212 173.368471,140.636352 174.28585,142.488632 L174.28585,202.793577 L181.691358,202.793577 C198.350427,200.015157 200.198481,182.378805 200.198481,174.030315 C200.198481,172.178035 198.350427,126.717791 198.350427,125.77842 C199.281102,124.85228 199.281102,123.92614 199.281102,123 L264.069326,123 L264.069326,123.013231 Z" id="Shape"></path>
            </g>
        </g>
    </g>
</svg>