<?xml version="1.0" encoding="UTF-8"?>
<svg width="1300px" height="106px" viewBox="0 0 1300 106" version="1.1" xmlns="http://www.w3.org/2000/svg" xmlns:xlink="http://www.w3.org/1999/xlink">
    <!-- Generator: Sketch 49.3 (51167) - http://www.bohemiancoding.com/sketch -->
    <title>Group 5</title>
    <desc>Created with Sketch.</desc>
    <defs></defs>
    <g id="Page-1" stroke="none" stroke-width="1" fill="none" fill-rule="evenodd">
        <g id="Desktop-HD-Copy-5" transform="translate(0.000000, -586.000000)">
            <g id="Group" transform="translate(-12.000000, -4.000000)">
                <g id="Group-5" transform="translate(-33.000000, 586.000000)">
                    <path d="M247.054688,59.7289201 C337.466146,27.1060575 425.364583,22.8285584 510.75,46.8964228 C638.828125,82.9982195 773.476562,115.14601 888.6875,69.8551691 C1003.89844,24.5643283 1110.15625,-10.078978 1225.44531,10.7447158 C1340.73438,31.5684096 1378,73.7925386 1490.44531,73.9256328 C1602.89062,74.058727 1634.17969,8.92576201 1675.78906,0.396643224 C1703.52865,-5.28943597 1717.39844,50.1590788 1717.39844,166.742188 L235,166.742188 L247.054688,59.7289201 Z" id="Path-2" fill="#DD0A54" opacity="0.468580163"></path>
                    <path d="M12.9375,59.7289201 C103.348958,27.1060575 191.247396,22.8285584 276.632812,46.8964228 C404.710938,82.9982195 539.359375,115.14601 654.570312,69.8551691 C769.78125,24.5643283 876.039062,-10.078978 991.328125,10.7447158 C1106.61719,31.5684096 1143.88281,73.7925386 1256.32812,73.9256328 C1368.77344,74.058727 1400.0625,8.92576201 1441.67188,0.396643224 C1469.41146,-5.28943597 1483.28125,50.1590788 1483.28125,166.742188 L0.8828125,166.742188 L12.9375,59.7289201 Z" id="Path-2" fill="#FFFFFF"></path>
                </g>
            </g>
        </g>
    </g>
</svg>